<svg width="140" height="156" viewBox="0 0 140 156" fill="none" xmlns="http://www.w3.org/2000/svg">
<rect y="6" width="140" height="138" rx="30" fill="#B5B49D"/>
<path d="M98.29 102.752C93.5113 102.752 89.458 102.027 86.13 100.576C82.802 99.04 79.9433 97.0347 77.554 94.56C75.25 92.0853 73.1593 89.3547 71.282 86.368C69.49 83.296 67.7407 80.2667 66.034 77.28C64.3273 74.2933 62.4073 71.5627 60.274 69.088C58.1407 66.6133 55.6233 64.6507 52.722 63.2C49.8207 61.664 46.2367 60.896 41.97 60.896C38.386 60.896 35.1433 61.7067 32.242 63.328C29.426 64.864 27.1647 67.04 25.458 69.856C23.8367 72.5867 23.026 75.7013 23.026 79.2C23.026 82.6987 23.8367 85.856 25.458 88.672C27.1647 91.4027 29.426 93.5787 32.242 95.2C35.1433 96.736 38.386 97.504 41.97 97.504C46.2367 97.504 49.8207 96.7787 52.722 95.328C55.6233 93.792 58.1407 91.7867 60.274 89.312C62.4073 86.8373 64.3273 84.1067 66.034 81.12C67.7407 78.048 69.49 75.0187 71.282 72.032C73.1593 69.0453 75.25 66.3147 77.554 63.84C79.9433 61.3653 82.802 59.4027 86.13 57.952C89.458 56.416 93.5113 55.648 98.29 55.648C102.898 55.648 106.994 56.672 110.578 58.72C114.247 60.768 117.106 63.5413 119.154 67.04C121.287 70.5387 122.354 74.5493 122.354 79.072C122.354 83.5947 121.287 87.648 119.154 91.232C117.106 94.7307 114.247 97.5467 110.578 99.68C106.994 101.728 102.898 102.752 98.29 102.752ZM41.714 102.752C37.106 102.752 32.9673 101.728 29.298 99.68C25.714 97.632 22.8553 94.816 20.722 91.232C18.5887 87.648 17.522 83.6373 17.522 79.2C17.522 74.6773 18.5887 70.6667 20.722 67.168C22.8553 63.584 25.714 60.768 29.298 58.72C32.9673 56.672 37.106 55.648 41.714 55.648C46.4927 55.648 50.546 56.416 53.874 57.952C57.202 59.4027 60.018 61.3653 62.322 63.84C64.7113 66.3147 66.802 69.0453 68.594 72.032C70.4713 75.0187 72.2633 78.048 73.97 81.12C75.6767 84.1067 77.554 86.8373 79.602 89.312C81.7353 91.7867 84.2527 93.792 87.154 95.328C90.1407 96.7787 93.7673 97.504 98.034 97.504C101.703 97.504 104.946 96.6933 107.762 95.072C110.578 93.4507 112.797 91.2747 114.418 88.544C116.039 85.728 116.85 82.5707 116.85 79.072C116.85 75.5733 116.039 72.4587 114.418 69.728C112.797 66.912 110.578 64.736 107.762 63.2C104.946 61.664 101.703 60.896 98.034 60.896C93.7673 60.896 90.1407 61.664 87.154 63.2C84.2527 64.6507 81.7353 66.6133 79.602 69.088C77.554 71.5627 75.6767 74.2933 73.97 77.28C72.2633 80.2667 70.4713 83.296 68.594 86.368C66.802 89.3547 64.7113 92.0853 62.322 94.56C60.018 97.0347 57.202 99.04 53.874 100.576C50.546 102.027 46.4927 102.752 41.714 102.752Z" fill="black"/>
</svg>
